<?xml version="1.0" ?><svg xmlns="http://www.w3.org/2000/svg" xmlns:xlink="http://www.w3.org/1999/xlink" version="1.1" id="Layer_1" viewBox="0 0 1000 1000" style="enable-background:new 0 0 1000 1000;" xml:space="preserve"><style type="text/css">
	.st0{fill:#ADAAD4;}
	.st1{fill:#F6AEC3;}
	.st2{fill:#F5EA85;}
	.st3{fill:#FDD677;}
	.st4{fill:#32C0CE;}
	.st5{fill:#FDD770;}
	.st6{fill:#FFFFFF;}
	.st7{fill:#73CBCA;}
	.st8{fill:#BFE5EB;}
	.st9{fill:#F4E884;}
	.st10{fill:#A29B97;}
	.st11{fill:#424C5C;}
	.st12{fill:#7183BD;}
	.st13{fill:#E7DC9D;}
	.st14{fill:#FCD76B;}
	.st15{fill:#AFCBE8;}
	.st16{fill:#EF4865;}
	.st17{fill:#A8C9DC;}
	.st18{fill:#9C9E9C;}
	.st19{fill:#F6DE62;}
	.st20{fill:#F7B0C0;}
	.st21{fill:#21C1E2;}
	.st22{fill:#F6E883;}
	.st23{fill:#A2CBE3;}
	.st24{fill:#FBDA74;}
	.st25{fill:#EF4B67;}
	.st26{fill:#B5DCE6;}
	.st27{fill:#B2D0E8;}
	.st28{fill:#AECDE9;}
	.st29{fill:#E99286;}
	.st30{fill:#F9BA73;}
	.st31{fill:#F0877F;}
	.st32{fill:#BDC579;}
	.st33{fill:#FED56E;}
	.st34{fill:#C5DB86;}
	.st35{fill:#FCBF6B;}
	.st36{fill:#F8BC70;}
	.st37{fill:#FBBA6B;}
	.st38{fill:#FCD86F;}
	.st39{fill:#EF8E85;}
	.st40{fill:#E6BE65;}
	.st41{fill:#C9DB84;}
	.st42{fill:#FAD367;}
	.st43{fill:#F7BC74;}
	.st44{fill:#FBD872;}
	.st45{fill:#D1E08B;}
	.st46{fill:#EE8A7E;}
	.st47{fill:#F38B85;}
	.st48{fill:#FDCF6A;}
	.st49{fill:#CADB86;}
	.st50{fill:none;}
	.st51{fill:#010101;}
	.st52{fill:#010101;stroke:#010101;stroke-miterlimit:10;}
</style><path d="M364.18,318.62c0.79-2.23,1.73-6.23,2.28-6.18c4.08,0.39,2.39,3.94,2.33,6.16c-0.07,2.42-1.24,4.81-1.93,7.21  C366.02,323.55,365.18,321.29,364.18,318.62z"/><path d="M255.06,290.26c1.76-10.06,3.13-17.85,5.33-30.38c94.37,9.65,181.44,32.63,246.9,108.56  c83.28-67.45,178.43-90.3,283.88-74.6c19.62,2.92,32.31,8.68,33.7,32.11c0.59,9.98,10.23,22.08,19.17,28.37  c19.67,13.84,25.92,30.59,25.97,54.39c0.19,79.3,4.99,158.63,3.78,237.88c-0.81,53.25-8.5,106.41-13.82,159.54  c-0.96,9.55-5.29,18.77-8.16,28.11c-5.31,17.24-15.1,19.11-30.31,10.54c-71.4-40.23-149.11-51.85-229.57-46.95  c-22.48,1.37-44.49,9.72-66.88,14.03c-9.33,1.8-22.01,5.57-28.15,1.27c-26.48-18.55-53.89-8.38-79.93-3.92  c-82.22,14.08-164.1,30.26-245.89,46.75c-15.43,3.11-20.37-2.99-25.44-15.28c-23.08-55.98-32.97-114.79-33.55-174.61  c-0.88-90.88,1.41-181.8,2.47-272.7c0.06-5.3-0.74-12.95,2.27-15.53c35.57-30.56,50.76-88.48,112.45-84.41  C237.06,293.94,245.02,291.57,255.06,290.26z M805.11,763.22c2.74-41.85,7.68-79.86,7.24-117.8c-1.23-105.76-4.41-211.5-8.09-317.2  c-0.2-5.83-11.31-15.09-18.42-16.28c-86.1-14.33-165.6,3.5-239.5,49.96c-21.66,13.62-30.5,28.22-28.17,55.37  c4.25,49.55,3.18,99.58,3.59,149.42c0.46,55.99,0.11,111.98,0.11,171.2C620.71,695.83,714.86,694.62,805.11,763.22z M503.62,720.34  c0-12.57,0.09-21.29-0.01-30.02c-1.04-89.93-3.06-179.87-2.56-269.79c0.14-24.79-8.64-42.48-25.31-58.6  c-55.27-53.43-125.26-70.17-198.52-82.27c0,140.34,0,278.41,0,417.15C374.89,663.11,408.35,668.59,503.62,720.34z M257.49,730.08  c0-144.06,0-281.36,0-422.22c-21.16,3.49-37.71,5.57-53.97,9.08c-21.55,4.65-31.1,15.71-29.75,40.74  c3.41,63.13,1.55,126.53,4.32,189.72c3.23,73.53,9.13,146.94,14.07,223.38c102.77-30.37,201.22-31.44,304.52-29.07  C418.5,683.12,341.54,682.07,257.49,730.08z"/><path class="st13" d="M805.11,763.22c-90.25-68.6-184.4-67.39-283.24-25.34c0-59.22,0.36-115.21-0.11-171.2  c-0.41-49.84,0.66-99.87-3.59-149.42c-2.33-27.15,6.51-41.75,28.17-55.37c73.9-46.45,153.4-64.29,239.5-49.96  c7.11,1.18,18.22,10.45,18.42,16.28c3.68,105.7,6.85,211.44,8.09,317.2C812.8,683.36,807.85,721.37,805.11,763.22z M743.16,393.13  c0.25-3.34,0.5-6.68,0.76-10.03c-13.39-4.68-28.07-15.46-39.93-12.94c-42.14,8.93-83.4,22.11-124.76,34.45  c-5.44,1.62-11.2,6.88-13.85,11.99c-3.11,6.02-2.98,13.71-4.26,20.68c5.82-2.4,11.93-4.26,17.4-7.29  c46.52-25.73,92.46-53.34,149.38-33.35C732.06,398.11,738.03,394.42,743.16,393.13z M752.15,480.17c-0.14-2.58-0.28-5.15-0.42-7.73  c-5.74-1.56-11.74-5.1-17.18-4.37c-41.27,5.55-82.51,11.43-123.55,18.41c-10.1,1.72-20.13,6.8-28.81,12.44  c-3.72,2.42-3.92,10.25-5.71,15.62c5.4,0.22,11.16,1.74,16.14,0.4c14.32-3.84,28.04-10.49,42.52-13.04  c33.21-5.87,66.77-9.75,100.11-14.97C741.08,486,746.52,482.48,752.15,480.17z M657.89,587.07c-0.62-1.2-1.25-2.4-1.87-3.6  c-21.27,7.04-42.81,13.4-63.59,21.67c-4.42,1.76-6.08,10.45-9.01,15.94c6.05,0.03,12.45,1.33,18.09-0.18  c12.62-3.36,24.67-10.74,37.31-11.69c19.16-1.44,38.62,1.69,57.96,1.77c4.79,0.02,9.6-4.26,14.4-6.57  c-3.85-3.79-7.16-9.9-11.65-10.95C685.88,590.28,671.8,589.05,657.89,587.07z"/><path class="st13" d="M503.62,720.34c-95.27-51.75-128.73-57.23-226.41-23.53c0-138.74,0-276.81,0-417.15  c73.27,12.1,143.26,28.84,198.52,82.27c16.68,16.12,25.45,33.81,25.31,58.6c-0.5,89.92,1.52,179.86,2.56,269.79  C503.71,699.05,503.62,707.78,503.62,720.34z M357.47,375.43c-0.54,1.52-1.09,3.05-1.63,4.57c-3.55,0-7.37-0.86-10.58,0.18  c-6.81,2.21-13.3,5.41-19.92,8.2c6.75,3.6,13.13,8.54,20.33,10.55c26.05,7.28,52.31,13.86,78.64,20.04  c6.88,1.61,14.32,0.82,21.51,1.13c-3.85-5.91-6.4-15.02-11.76-17.2C408.95,392.7,383.07,384.41,357.47,375.43z M329.57,588.38  c40.56,9.8,73.5,18.11,106.68,25.36c4.39,0.96,9.97-3.54,15-5.5c-3.49-4.5-6.3-12.06-10.58-13.02  c-29.9-6.67-60.02-12.55-90.29-17.18C345.13,577.23,338.8,583.57,329.57,588.38z M324.99,486.78c34.21,6.15,61.63,11.41,89.21,15.67  c3.85,0.6,8.46-3.68,12.72-5.71c-2.62-4.09-4.72-11.25-7.94-11.8c-25.73-4.36-51.62-8.04-77.6-10.4  C337.08,474.16,332.12,481.23,324.99,486.78z"/><path class="st13" d="M257.49,730.08c84.05-48.01,161.02-46.96,239.19,11.63c-103.3-2.37-201.75-1.29-304.52,29.07  c-4.94-76.44-10.84-149.85-14.07-223.38c-2.77-63.18-0.91-126.59-4.32-189.72c-1.35-25.03,8.2-36.1,29.75-40.74  c16.25-3.5,32.81-5.58,53.97-9.08C257.49,448.71,257.49,586.01,257.49,730.08z"/><path d="M743.16,393.13c-5.13,1.29-11.11,4.98-15.27,3.52c-56.92-20-102.85,7.62-149.38,33.35c-5.47,3.03-11.58,4.89-17.4,7.29  c1.28-6.97,1.15-14.66,4.26-20.68c2.64-5.11,8.4-10.37,13.85-11.99c41.36-12.34,82.62-25.53,124.76-34.45  c11.86-2.51,26.54,8.26,39.93,12.94C743.66,386.44,743.41,389.79,743.16,393.13z"/><path d="M752.15,480.17c-5.63,2.32-11.06,5.84-16.91,6.75c-33.34,5.22-66.89,9.11-100.11,14.97c-14.48,2.56-28.2,9.2-42.52,13.04  c-4.99,1.34-10.74-0.18-16.14-0.4c1.8-5.37,2-13.2,5.71-15.62c8.69-5.65,18.72-10.73,28.81-12.44  c41.04-6.98,82.28-12.86,123.55-18.41c5.43-0.73,11.44,2.81,17.18,4.37C751.87,475.01,752.01,477.59,752.15,480.17z"/><path d="M657.89,587.07c13.91,1.99,28,3.22,41.63,6.4c4.49,1.05,7.8,7.15,11.65,10.95c-4.8,2.31-9.61,6.59-14.4,6.57  c-19.34-0.07-38.8-3.2-57.96-1.77c-12.64,0.95-24.69,8.33-37.31,11.69c-5.65,1.5-12.04,0.2-18.09,0.18  c2.93-5.5,4.59-14.19,9.01-15.94c20.78-8.26,42.32-14.63,63.59-21.67C656.64,584.67,657.26,585.87,657.89,587.07z"/><path d="M357.47,375.43c25.6,8.98,51.48,17.27,76.58,27.47c5.36,2.18,7.91,11.28,11.76,17.2c-7.18-0.31-14.63,0.48-21.51-1.13  c-26.33-6.18-52.59-12.76-78.64-20.04c-7.2-2.01-13.57-6.95-20.33-10.55c6.62-2.79,13.11-5.99,19.92-8.2  c3.21-1.04,7.03-0.18,10.58-0.18C356.38,378.48,356.93,376.96,357.47,375.43z"/><path d="M329.57,588.38c9.22-4.81,15.56-11.15,20.8-10.35c30.28,4.63,60.39,10.51,90.29,17.18c4.28,0.96,7.09,8.52,10.58,13.02  c-5.03,1.97-10.61,6.46-15,5.5C403.08,606.49,370.14,598.18,329.57,588.38z"/><path d="M324.99,486.78c7.13-5.55,12.09-12.62,16.38-12.23c25.98,2.36,51.87,6.04,77.6,10.4c3.22,0.55,5.32,7.7,7.94,11.8  c-4.26,2.02-8.86,6.3-12.72,5.71C386.62,498.19,359.2,492.93,324.99,486.78z"/></svg>