<?xml version="1.0" ?><svg xmlns="http://www.w3.org/2000/svg" xmlns:xlink="http://www.w3.org/1999/xlink" version="1.1" id="Layer_1" viewBox="0 0 1000 1000" style="enable-background:new 0 0 1000 1000;" xml:space="preserve"><style type="text/css">
	.st0{fill:#ADAAD4;}
	.st1{fill:#F6AEC3;}
	.st2{fill:#F5EA85;}
	.st3{fill:#FDD677;}
	.st4{fill:#32C0CE;}
	.st5{fill:#FDD770;}
	.st6{fill:#FFFFFF;}
	.st7{fill:#73CBCA;}
	.st8{fill:#BFE5EB;}
	.st9{fill:#F4E884;}
	.st10{fill:#A29B97;}
	.st11{fill:#424C5C;}
	.st12{fill:#7183BD;}
	.st13{fill:#E7DC9D;}
	.st14{fill:#FCD76B;}
	.st15{fill:#AFCBE8;}
	.st16{fill:#EF4865;}
	.st17{fill:#A8C9DC;}
	.st18{fill:#9C9E9C;}
	.st19{fill:#F6DE62;}
	.st20{fill:#F7B0C0;}
	.st21{fill:#21C1E2;}
	.st22{fill:#F6E883;}
	.st23{fill:#A2CBE3;}
	.st24{fill:#FBDA74;}
	.st25{fill:#EF4B67;}
	.st26{fill:#B5DCE6;}
	.st27{fill:#B2D0E8;}
	.st28{fill:#AECDE9;}
	.st29{fill:#E99286;}
	.st30{fill:#F9BA73;}
	.st31{fill:#F0877F;}
	.st32{fill:#BDC579;}
	.st33{fill:#FED56E;}
	.st34{fill:#C5DB86;}
	.st35{fill:#FCBF6B;}
	.st36{fill:#F8BC70;}
	.st37{fill:#FBBA6B;}
	.st38{fill:#FCD86F;}
	.st39{fill:#EF8E85;}
	.st40{fill:#E6BE65;}
	.st41{fill:#C9DB84;}
	.st42{fill:#FAD367;}
	.st43{fill:#F7BC74;}
	.st44{fill:#FBD872;}
	.st45{fill:#D1E08B;}
	.st46{fill:#EE8A7E;}
	.st47{fill:#F38B85;}
	.st48{fill:#FDCF6A;}
	.st49{fill:#CADB86;}
	.st50{fill:none;}
	.st51{fill:#010101;}
	.st52{fill:#010101;stroke:#010101;stroke-miterlimit:10;}
</style><path d="M219.81,728.76c0,14.72-1.54,27.22,0.28,39.2c6.74,44.4,43.31,61.64,80.89,37.19c15.48-10.07,27.86-24.89,41.64-37.56  c8.54-7.86,16.23-16.95,25.73-23.39c25.61-17.37,44.03-10.39,52.35,19.43c7.2,25.79,11.27,52.69,20.78,77.55  c9.96,26.03,35.72,37.36,63.82,33.39c26.98-3.81,43.65-22.02,45-46.19c1.03-18.51-8.12-39.02-17.23-56.26  c-8.61-16.28-24.41-28.59-34.67-44.21c-15.41-23.47-22.31-49.01-7.1-75.76c14.98-26.36,40.92-30.33,67.36-30.16  c29.49,0.18,58.96,3.87,88.45,4.07c34.63,0.24,59.4-12.13,79.26-38.78c-23.04-10.76-46.54-19.3-67.28-32.25  c-14.69-9.17-32.18-22.29-36.76-37.22c-7-22.82,14.05-35.98,32.05-47.01c2.85-1.75,5.38-4.02,3.9-2.89  c-22.07-42.82-44.42-83.06-63.52-124.8c-7.59-16.58-8.84-36.35-11.45-54.88c-7.2-51.21-15.08-102.39-19.82-153.85  c-3.41-37.06,6.27-42.3,41.9-29.43c4.45,1.61,11.31-0.19,15.85-2.64c20-10.79,31-2.73,35.02,16.96c2.47,12.1,6.41,27.05,1.59,36.66  c-5.6,11.18-20.05,17.94-30.66,26.62c-2.83-2.11-5.66-4.22-8.49-6.33c-0.69,9.36-1.39,18.72-2.07,28.08  c-0.58,8.01,1.82,18.11-2.14,23.71c-36.52,51.5-7.52,99.12,10.12,145.64c10.12,26.7,30.44,49.54,47.27,75.85  c60.76-46.01,107.89-98.01,143.37-160.08c4.33-7.57-0.46-19.91,0.67-29.85c2-17.61,5.29-35.08,8.02-52.41  c-39.15-18.04-40.58-21.62-24.34-59.22c12.11-28.04,18.36-29.38,45.44-13.22c5.53,3.3,14.37,1.55,21.65,1.31  c16.56-0.55,32.92,5.84,28.33,23.03c-10.99,41.17-17.98,88.36-43.42,119.25c-22.56,27.39-39.9,59.15-65.27,84.34  c-26.64,26.45-52.55,53.65-78.9,80.4c-19.02,19.31-35.08,41.08-59.95,55.04c-17.63,9.89-14.21,25.62,3.9,34.8  c22.33,11.31,45.52,20.91,67.85,32.22c26.6,13.47,30.04,34.96,5.06,51.12c-19.49,12.61-43.36,22.37-66.22,24.91  c-33.53,3.72-67.91-0.47-101.93-0.66c-20.03-0.11-44.51,0.31-49.77,22.41c-4.24,17.82,1.04,40.12,8.39,57.82  c6.57,15.81,21.51,28.25,33.19,41.8c23.42,27.18,28.46,57.34,13.11,89.61c-13.95,29.33-41.4,42.74-75.76,39.38  c-32.69-3.19-56.22-24.37-66.51-61.3c-5.5-19.75-9.4-39.95-14.14-59.92c-4.4-18.53-15.23-20.92-29.19-10.15  c-9.13,7.05-16.59,16.24-25.21,24.01c-14.58,13.14-27.94,28.5-44.54,38.34c-48.27,28.62-100.06-0.94-102.6-57.22  c-0.52-11.53-0.08-23.1-0.08-37c-20.38-2.01-39.65-3.86-58.91-5.83c-38.37-3.93-52.77-17.22-49.2-54.74  c10.67-112.05,23.32-223.91,35.81-335.77c2.57-23.03,7.05-45.92,11.94-68.6c5.69-26.37,23.9-40.19,50.04-39.87  c52.78,0.63,106.16-1.15,158.13,6.21c47.23,6.68,85.2,35.54,83.14,93.14c-1.69,47.27-6.69,94.54-12.45,141.53  c-9.01,73.55-19.73,146.89-30.05,220.27c-4.14,29.48-22.31,43.81-51.48,44.09C301.59,729.03,263.16,728.76,219.81,728.76z   M268.44,240.98c-0.03,0.64-0.06,1.27-0.09,1.91c-20.58-0.9-41.16-1.8-61.74-2.71c-34.63-1.54-46.47,8.82-51.55,43.4  c-7.94,54.02-17.53,107.82-24.46,161.97c-7.73,60.37-13.41,121-19.64,181.56c-1.43,13.85-1.36,28.8,17.62,30.06  c63.32,4.21,126.66,8.53,190.07,10.8c20.84,0.75,33.93-10.48,35.51-34.76c1.97-30.27,8.86-60.19,12.05-90.42  c8.56-81.05,17.42-162.1,23.84-243.33c3.08-38.95-10.11-51.53-49.15-54.74C316.81,242.73,292.6,242.17,268.44,240.98z   M230.23,712.23c33.84,0,64.27,0.59,94.67-0.14c42.14-1.02,45.36-2.05,52.91-44.27c9.44-52.75,15.58-106.11,22.19-159.33  c6.72-54.12,13.04-108.32,17.91-162.63c1.48-16.46-2.42-33.41-3.86-50.13c-15.02,114.65-27.85,228.41-41.82,342.03  c-4.16,33.81-16.1,45.41-50,48.52c-28.39,2.61-57.14,1.29-85.73,1.9c-2.41,0.05-4.79,1.53-7.52,2.45  C229.36,697.19,229.71,703.24,230.23,712.23z M113.67,675.13c-1.76,2.9-3.51,5.8-5.27,8.7c8.85,6.42,16.87,15.88,26.74,18.59  c17,4.66,35.17,5.02,52.83,7.38c17.83,2.39,23.47-6,21.59-22.08C176.75,683.41,145.21,679.27,113.67,675.13z M579.8,112.17  c2.68,40.28,5.03,75.58,7.72,116.01C607.21,198.13,603.27,131.2,579.8,112.17z M843.03,260.09c11.46-34.82,22.93-69.63,36.03-109.43  C852.72,165.26,830.69,230.8,843.03,260.09z M637.68,116.89c-3.1-0.72-6.21-1.44-9.31-2.16c-3.62,11.25-9.01,22.37-9.81,33.82  c-0.24,3.49,12.14,7.87,24.99,15.59C640.84,142.31,639.26,129.6,637.68,116.89z M818.01,140.27c-1.16,15.58-2.16,29.01-3.16,42.43  c5.56-0.71,14.61,0.38,16.08-2.45C837.93,166.73,843.65,151.98,818.01,140.27z"/><path class="st18" d="M268.44,240.98c24.16,1.2,48.36,1.75,72.46,3.73c39.04,3.21,52.23,15.79,49.15,54.74  c-6.42,81.23-15.28,162.28-23.84,243.33c-3.19,30.24-10.09,60.15-12.05,90.42c-1.58,24.28-14.67,35.5-35.51,34.76  c-63.41-2.28-126.75-6.6-190.07-10.8c-18.98-1.26-19.04-16.2-17.62-30.06c6.23-60.55,11.91-121.19,19.64-181.56  c6.93-54.15,16.52-107.95,24.46-161.97c5.08-34.58,16.92-44.94,51.55-43.4c20.58,0.91,41.16,1.81,61.74,2.71  C268.39,242.25,268.41,241.61,268.44,240.98z M262.78,282.37c0-0.85,0-1.71,0-2.56c-15.2,0-30.41,0.15-45.6-0.03  c-34.31-0.39-46.86,9.75-52.6,43.49c-4.78,28.13-10.07,56.23-13.48,84.54c-7.16,59.41-13.4,118.94-19.65,178.45  c-1.6,15.21,0.65,31.33,19.16,32.72c53.18,3.98,106.53,7.67,159.78,7.18c11.02-0.1,30-17.65,31.5-28.98  c11.56-87.64,20.72-175.65,28.41-263.73c2.69-30.77-12.56-47.08-43.25-50.61C305.88,280.4,284.21,282.37,262.78,282.37z"/><path class="st18" d="M230.23,712.23c-0.52-8.98-0.87-15.03-1.25-21.59c2.73-0.93,5.11-2.4,7.52-2.45  c28.59-0.61,57.34,0.7,85.73-1.9c33.9-3.11,45.84-14.71,50-48.52c13.97-113.62,26.8-227.38,41.82-342.03  c1.44,16.72,5.34,33.67,3.86,50.13c-4.87,54.31-11.19,108.51-17.91,162.63c-6.61,53.22-12.76,106.58-22.19,159.33  c-7.55,42.22-10.77,43.25-52.91,44.27C294.5,712.82,264.07,712.23,230.23,712.23z"/><path class="st6" d="M190.65,704.35c31.54,4.14,63.08,8.28,95.88,12.59c1.88,16.08-3.76,24.47-21.59,22.08  c-17.65-2.37-35.82-2.72-52.83-7.38c-9.87-2.71-17.89-12.17-26.74-18.59C187.13,710.15,188.89,707.25,190.65,704.35z"/><path class="st19" d="M579.8,112.57c23.48,18.96,27.41,85.66,7.72,115.61C584.83,187.89,582.48,152.71,579.8,112.57z"/><path class="st19" d="M844.59,263.74c-11.8-30.27,9.27-98,34.47-113.08C866.53,191.79,855.56,227.76,844.59,263.74z"/><path class="st19" d="M637.8,116.99c1.55,13.42,3.09,26.85,5.75,49.92c-12.59-8.16-24.72-12.78-24.48-16.47  c0.78-12.09,6.06-23.84,9.61-35.72C631.72,115.47,634.76,116.23,637.8,116.99z"/><path class="st19" d="M817.85,139.83c26.17,11.95,20.33,27,13.18,40.8c-1.5,2.89-10.74,1.77-16.41,2.5  C815.64,169.43,816.66,155.74,817.85,139.83z"/><path d="M262.78,282.37c21.44,0,43.1-1.97,64.26,0.47c30.69,3.54,45.94,19.84,43.25,50.61c-7.69,88.08-16.85,176.09-28.41,263.73  c-1.49,11.33-20.48,28.88-31.5,28.98c-53.24,0.49-106.6-3.2-159.78-7.18c-18.52-1.39-20.76-17.51-19.16-32.72  c6.26-59.52,12.49-119.04,19.65-178.45c3.41-28.31,8.7-56.4,13.48-84.54c5.74-33.75,18.29-43.89,52.6-43.49  c15.2,0.17,30.4,0.03,45.6,0.03C262.78,280.66,262.78,281.52,262.78,282.37z M261.54,298.81c0-0.69,0-1.38,0-2.07  c-14.34,0-28.74,0.93-42.99-0.21c-23.24-1.85-34.84,7.66-37.65,31.13c-3.5,29.27-9.87,58.18-13.55,87.44  c-6.91,55.02-13.31,110.12-18.46,165.32c-0.69,7.43,6.59,22.15,11.05,22.51c48.9,3.9,97.96,6.33,147.01,7.05  c6.46,0.1,18.06-10.95,18.89-17.85c10.25-85.32,19.16-170.81,27.9-256.31c2.4-23.51-11.19-35.26-33.11-36.73  C301.01,297.77,281.24,298.81,261.54,298.81z"/><path class="st28" d="M261.54,298.81c19.7,0,39.48-1.04,59.09,0.28c21.92,1.47,35.51,13.22,33.11,36.73  c-8.74,85.5-17.65,170.99-27.9,256.31c-0.83,6.89-12.43,17.94-18.89,17.85c-49.05-0.73-98.11-3.15-147.01-7.05  c-4.46-0.36-11.75-15.08-11.05-22.51c5.15-55.2,11.54-110.3,18.46-165.32c3.68-29.25,10.05-58.17,13.55-87.44  c2.81-23.47,14.41-32.98,37.65-31.13c14.24,1.14,28.65,0.21,42.99,0.21C261.54,297.43,261.54,298.12,261.54,298.81z M238,457.01  c25.04,5.98,59.03-25.02,54.42-49.28C274.01,424.4,257.5,439.35,238,457.01z M309.38,454c-3.08-1.92-6.17-3.83-9.25-5.75  c-11.99,15.89-23.97,31.78-35.96,47.66c2.99,2.08,5.98,4.16,8.97,6.25C288.02,488.12,305.4,475.86,309.38,454z M230.48,424.32  c13.87-14.99,25.58-27.66,37.29-40.32C239.49,385.99,225.85,402,230.48,424.32z"/><path d="M238,457.01c19.5-17.65,36.01-32.6,54.42-49.28C297.04,431.99,263.04,462.98,238,457.01z"/><path d="M309.38,454c-3.98,21.86-21.36,34.12-36.24,48.16c-2.99-2.08-5.98-4.16-8.97-6.25c11.99-15.89,23.97-31.78,35.96-47.66  C303.21,450.17,306.29,452.09,309.38,454z"/><path d="M230.48,424.32c-4.63-22.32,9.01-38.33,37.29-40.32C256.06,396.66,244.35,409.33,230.48,424.32z"/></svg>