<?xml version="1.0" ?><svg xmlns="http://www.w3.org/2000/svg" xmlns:xlink="http://www.w3.org/1999/xlink" version="1.1" id="Layer_1" viewBox="0 0 1000 1000" style="enable-background:new 0 0 1000 1000;" xml:space="preserve"><style type="text/css">
	.st0{fill:#ADAAD4;}
	.st1{fill:#F6AEC3;}
	.st2{fill:#F5EA85;}
	.st3{fill:#FDD677;}
	.st4{fill:#32C0CE;}
	.st5{fill:#FDD770;}
	.st6{fill:#FFFFFF;}
	.st7{fill:#73CBCA;}
	.st8{fill:#BFE5EB;}
	.st9{fill:#F4E884;}
	.st10{fill:#A29B97;}
	.st11{fill:#424C5C;}
	.st12{fill:#7183BD;}
	.st13{fill:#E7DC9D;}
	.st14{fill:#FCD76B;}
	.st15{fill:#AFCBE8;}
	.st16{fill:#EF4865;}
	.st17{fill:#A8C9DC;}
	.st18{fill:#9C9E9C;}
	.st19{fill:#F6DE62;}
	.st20{fill:#F7B0C0;}
	.st21{fill:#21C1E2;}
	.st22{fill:#F6E883;}
	.st23{fill:#A2CBE3;}
	.st24{fill:#FBDA74;}
	.st25{fill:#EF4B67;}
	.st26{fill:#B5DCE6;}
	.st27{fill:#B2D0E8;}
	.st28{fill:#AECDE9;}
	.st29{fill:#E99286;}
	.st30{fill:#F9BA73;}
	.st31{fill:#F0877F;}
	.st32{fill:#BDC579;}
	.st33{fill:#FED56E;}
	.st34{fill:#C5DB86;}
	.st35{fill:#FCBF6B;}
	.st36{fill:#F8BC70;}
	.st37{fill:#FBBA6B;}
	.st38{fill:#FCD86F;}
	.st39{fill:#EF8E85;}
	.st40{fill:#E6BE65;}
	.st41{fill:#C9DB84;}
	.st42{fill:#FAD367;}
	.st43{fill:#F7BC74;}
	.st44{fill:#FBD872;}
	.st45{fill:#D1E08B;}
	.st46{fill:#EE8A7E;}
	.st47{fill:#F38B85;}
	.st48{fill:#FDCF6A;}
	.st49{fill:#CADB86;}
	.st50{fill:none;}
	.st51{fill:#010101;}
	.st52{fill:#010101;stroke:#010101;stroke-miterlimit:10;}
</style><path d="M399.53,869.88c-111.09,4.15-124.87-9.36-130.95-84.2c-13.95-171.83-28.65-343.61-43.65-515.35  c-4.56-52.24,3.13-70.44,56.1-82.09c100.76-22.16,202.66-39.2,304.13-58.1c13.72-2.55,27.87-5.63,41.55-4.64  c11.15,0.81,24.38,4.54,32.4,11.76c52.03,46.84,77.44,103.17,82.61,175.97c7.62,107.37,29.86,213.67,44.57,320.6  c5.31,38.59,8.62,77.65,9.62,116.58c1.06,41.33-13.83,60.25-54.42,68.89c-50.04,10.65-100.57,19.49-151.25,26.62  C514.68,856.56,438.82,865.01,399.53,869.88z M384.93,178.68c-1.84,8.63-2.77,10.51-2.53,12.22c3.56,24.89,8.33,49.66,10.6,74.67  c1.63,17.97-0.03,36.25-0.22,54.39c-17.42-4.08-34.83-8.16-55.67-13.04c-0.08,0.06-3.74,2.83-7.25,5.77  c-25.89,21.71-27.62,21.11-33.63-12.59c-5.34-29.92-10.49-59.87-15.79-90.14c-39.58,14.25-40.51,18.04-36.01,55.48  c9.23,76.83,17.77,153.78,24.57,230.86c6.64,75.32,8.84,151.07,16.69,226.24c5.07,48.55,28.01,60.43,75.78,51.72  c50.36-9.17,101.15-16.28,151.96-22.63c47.1-5.89,95.16-6.07,141.55-15.12c59.67-11.64,67.32-28.77,60.02-88.3  C701.5,538,690.49,427.52,677.43,317.3c-5.69-48-13.04-95.85-21.42-143.46c-2.69-15.27-9.24-31.7-31.03-28.67  C544.82,156.32,464.67,167.54,384.93,178.68z M695.73,195.43c-3.26,0.97-6.51,1.95-9.77,2.92c12.79,116.58,25.25,233.19,38.5,349.71  c6.59,57.97,14.17,115.84,22.22,173.63c5.14,36.93-5.58,55.5-41.11,64.08c-20.77,5.01-41.86,9.04-63.01,12.09  c-100.29,14.47-200.66,28.45-301,42.6c5.08,6.95,11.96,10.94,18.83,10.9c13.93-0.07,27.92-1.73,41.75-3.74  c111.43-16.21,222.81-32.8,334.25-48.91c25.54-3.69,39.36-18.41,38.18-43.25c-2.07-43.51-2.48-87.73-10.98-130.17  c-23.1-115.34-41.43-231-47.91-348.62C714.18,249.29,702.65,222.49,695.73,195.43z M726.06,725.61  c-40.59,32.51-86.64,35.29-133.25,39.99c-82.15,8.28-163.95,20.22-245.8,31.28c-5.91,0.8-11.11,6.88-16.65,10.5  c1.02,2.91,2.03,5.82,3.05,8.74c25.49-2.19,51.17-3.08,76.43-6.8c96.5-14.18,192.84-29.4,289.29-43.92  C720.21,762.23,731.41,752.47,726.06,725.61z M284.49,784.18c9.58,26.22,17.44,47.73,25.3,69.24c3.25-1.28,6.5-2.56,9.76-3.84  C306.59,830.17,326.18,796.98,284.49,784.18z"/><path class="st9" d="M384.93,178.68c79.73-11.14,159.89-22.36,240.05-33.51c21.79-3.03,28.34,13.39,31.03,28.67  c8.38,47.61,15.73,95.46,21.42,143.46c13.06,110.23,24.07,220.7,37.58,330.88c7.3,59.54-0.35,76.66-60.02,88.3  c-46.4,9.05-94.45,9.24-141.55,15.12c-50.81,6.35-101.6,13.45-151.96,22.63c-47.77,8.7-70.71-3.18-75.78-51.72  c-7.85-75.17-10.05-150.92-16.69-226.24c-6.8-77.08-15.33-154.03-24.57-230.86c-4.5-37.44-3.57-41.23,36.01-55.48  c5.3,30.27,10.45,60.23,15.79,90.14c6.01,33.7,7.73,34.3,33.63,12.59c3.51-2.94,7.17-5.7,7.25-5.77  c20.84,4.88,38.25,8.96,55.67,13.04c0.19-18.14,1.86-36.41,0.22-54.39c-2.27-25-7.04-49.78-10.6-74.67  C382.16,189.18,383.09,187.31,384.93,178.68z M348.6,549.03c60.62-8.6,113.94-15.86,167.15-23.84c22-3.3,43.92-7.49,65.5-12.82  c4.3-1.06,6.87-9.14,10.24-13.98c-5.42-1.77-11.11-5.64-16.23-5c-47.02,5.93-94.08,11.81-140.84,19.44  c-27.4,4.47-54.42,11.58-81.27,18.78c-4.3,1.15-6.82,8.96-10.17,13.69C347.12,548.05,351.26,550.8,348.6,549.03z M602.11,579.27  c-0.94-3.95-1.88-7.9-2.82-11.85c-16.35,0-32.97-1.96-48.99,0.35c-60.44,8.72-120.74,18.47-180.89,28.96  c-6.06,1.06-10.8,9.75-16.15,14.9c6.32,2.07,13.04,6.65,18.87,5.7c12.67-2.07,24.64-8.77,37.3-10.39  c55.2-7.07,110.57-12.76,165.81-19.56C584.4,586.24,593.17,582.05,602.11,579.27z M568.92,650c0.84,2.22,1.68,4.45,2.52,6.67  c9.21-4.59,18.43-9.19,27.64-13.78c-10.37-4.09-20.7-8.27-31.13-12.18c-1.61-0.6-3.75-0.2-5.55,0.16  c-57.47,11.54-114.99,22.83-172.28,35.21c-5.07,1.09-8.61,9.27-12.86,14.15c5.6,2.02,11.1,5.23,16.82,5.71  c5.33,0.45,10.89-2.04,16.37-3.17C463.27,671.84,516.1,660.92,568.92,650z"/><path class="st20" d="M695.73,195.43c6.92,27.06,18.44,53.87,19.95,81.23c6.48,117.63,24.8,233.29,47.91,348.62  c8.5,42.44,8.91,86.66,10.98,130.17c1.18,24.84-12.64,39.56-38.18,43.25c-111.44,16.12-222.82,32.7-334.25,48.91  c-13.82,2.01-27.82,3.68-41.75,3.74c-6.87,0.03-13.75-3.95-18.83-10.9c100.34-14.15,200.7-28.13,301-42.6  c21.15-3.05,42.24-7.07,63.01-12.09c35.54-8.58,46.26-27.15,41.11-64.08c-8.05-57.79-15.62-115.66-22.22-173.63  c-13.26-116.52-25.71-233.13-38.5-349.71C689.22,197.37,692.48,196.4,695.73,195.43z"/><path class="st20" d="M726.06,725.61c5.35,26.86-5.85,36.61-26.94,39.79c-96.45,14.53-192.79,29.74-289.29,43.92  c-25.26,3.71-50.94,4.61-76.43,6.8c-1.02-2.91-2.03-5.82-3.05-8.74c5.53-3.62,10.73-9.7,16.65-10.5  c81.86-11.06,163.65-22.99,245.8-31.28C639.42,760.91,685.47,758.13,726.06,725.61z"/><path d="M284.49,784.18c41.69,12.8,22.1,45.99,35.06,65.4c-3.25,1.28-6.5,2.56-9.76,3.84C301.93,831.91,294.07,810.39,284.49,784.18  z"/><path d="M348.6,549.03c2.67,1.77-1.48-0.98-5.62-3.74c3.34-4.73,5.86-12.54,10.17-13.69c26.85-7.19,53.87-14.31,81.27-18.78  c46.76-7.63,93.82-13.51,140.84-19.44c5.12-0.65,10.81,3.22,16.23,5c-3.37,4.84-5.94,12.91-10.24,13.98  c-21.58,5.33-43.5,9.52-65.5,12.82C462.54,533.17,409.22,540.43,348.6,549.03z"/><path d="M602.11,579.27c-8.95,2.78-17.72,6.97-26.87,8.1c-55.23,6.81-110.61,12.5-165.81,19.56c-12.66,1.62-24.64,8.32-37.3,10.39  c-5.82,0.95-12.55-3.63-18.87-5.7c5.35-5.15,10.08-13.84,16.15-14.9c60.15-10.49,120.45-20.24,180.89-28.96  c16.01-2.31,32.64-0.35,48.99-0.35C600.23,571.37,601.17,575.32,602.11,579.27z"/><path d="M568.92,650c-52.83,10.92-105.66,21.83-158.48,32.76c-5.47,1.13-11.04,3.62-16.37,3.17c-5.73-0.48-11.23-3.69-16.82-5.71  c4.25-4.88,7.79-13.06,12.86-14.15c57.29-12.37,114.81-23.67,172.28-35.21c1.81-0.36,3.94-0.76,5.55-0.16  c10.44,3.91,20.77,8.09,31.13,12.18c-9.21,4.59-18.43,9.19-27.64,13.78C570.6,654.45,569.76,652.23,568.92,650z"/></svg>