<?xml version="1.0" ?><svg xmlns="http://www.w3.org/2000/svg" xmlns:xlink="http://www.w3.org/1999/xlink" version="1.1" id="Layer_1" viewBox="0 0 1000 1000" style="enable-background:new 0 0 1000 1000;" xml:space="preserve"><style type="text/css">
	.st0{fill:#ADAAD4;}
	.st1{fill:#F6AEC3;}
	.st2{fill:#F5EA85;}
	.st3{fill:#FDD677;}
	.st4{fill:#32C0CE;}
	.st5{fill:#FDD770;}
	.st6{fill:#FFFFFF;}
	.st7{fill:#73CBCA;}
	.st8{fill:#BFE5EB;}
	.st9{fill:#F4E884;}
	.st10{fill:#A29B97;}
	.st11{fill:#424C5C;}
	.st12{fill:#7183BD;}
	.st13{fill:#E7DC9D;}
	.st14{fill:#FCD76B;}
	.st15{fill:#AFCBE8;}
	.st16{fill:#EF4865;}
	.st17{fill:#A8C9DC;}
	.st18{fill:#9C9E9C;}
	.st19{fill:#F6DE62;}
	.st20{fill:#F7B0C0;}
	.st21{fill:#21C1E2;}
	.st22{fill:#F6E883;}
	.st23{fill:#A2CBE3;}
	.st24{fill:#FBDA74;}
	.st25{fill:#EF4B67;}
	.st26{fill:#B5DCE6;}
	.st27{fill:#B2D0E8;}
	.st28{fill:#AECDE9;}
	.st29{fill:#E99286;}
	.st30{fill:#F9BA73;}
	.st31{fill:#F0877F;}
	.st32{fill:#BDC579;}
	.st33{fill:#FED56E;}
	.st34{fill:#C5DB86;}
	.st35{fill:#FCBF6B;}
	.st36{fill:#F8BC70;}
	.st37{fill:#FBBA6B;}
	.st38{fill:#FCD86F;}
	.st39{fill:#EF8E85;}
	.st40{fill:#E6BE65;}
	.st41{fill:#C9DB84;}
	.st42{fill:#FAD367;}
	.st43{fill:#F7BC74;}
	.st44{fill:#FBD872;}
	.st45{fill:#D1E08B;}
	.st46{fill:#EE8A7E;}
	.st47{fill:#F38B85;}
	.st48{fill:#FDCF6A;}
	.st49{fill:#CADB86;}
	.st50{fill:none;}
	.st51{fill:#010101;}
	.st52{fill:#010101;stroke:#010101;stroke-miterlimit:10;}
</style><path d="M672.64,288.13c-20.15-7.58-39.19-14.75-61.44-23.12c-60.92,162.44-121.52,324.05-183.1,488.26  c27.66,10.58,53.59,20.5,80.61,30.83c-2.23,7.06-3.68,12.68-5.77,18.05c-35.85,92.48-62.2,103.88-153.55,66.57  c-46.86-19.14-65.52-57.54-47.91-105.94c41.87-115.08,85.3-229.6,128.02-344.38c23.02-61.84,45.11-124.05,69.42-185.37  c5.21-13.14,16.38-25.68,27.97-34.2c40.01-29.4,81.42-56.91,125.65-87.45c3.87,15.32,8.22,28.67,10.25,42.36  c0.92,6.2-2.79,13.08-4.4,19.66c-5.08-4.63-10.59-8.89-15.04-14.05c-1.98-2.3-1.84-6.42-3.59-13.43  c-33.34,22.98-65.19,44.94-100.88,69.54c43.74,16.34,84.12,31.42,128.02,47.82c-7.85-34.64-15.7-69.28-23.55-103.92  c6.48-1.87,12.96-3.74,19.44-5.61c5.44,22.5,10.77,40.64,14.68,53.2c8.62,27.68,11.95,39.7,15.1,59.76c0,0,1.82,17.67-2.82,37.32  c-4.97,21.04-67.99,181.97-158.34,400.01c-1.38,5.2-4.82,15.66-11.94,17.14c-2.59,0.54-5-0.25-5.77-0.69  c-11.72-6.68,34.89-114.19,77.5-215.95c0,0,30.31-72.53,50.42-126.89c7.14-19.29,14.62-40.36,22.53-63.84  C667.78,303.02,670.7,294.11,672.64,288.13z"/><path d="M482.8,797.4c-48.39-18.82-94.34-36.69-140.28-54.56c1.05-3.31,2.1-6.63,3.15-9.94c22.42-13.8,40.73,11.78,64.64,9.84  c60.11-160.43,120.62-321.94,181.44-484.27c-24.92-9.25-47.02-17.45-72.36-26.85C451.7,414.44,384.67,594.1,318.98,774.25  c-11.99,32.88,4.09,61.48,36.5,74.53c13.51,5.44,27.22,10.4,40.97,15.19c25.38,8.84,50.01,1.47,64.95-21.66  C469.99,829.01,475.26,813.54,482.8,797.4z"/><path class="st7" d="M482.8,797.4c-7.54,16.14-12.8,31.61-21.4,44.92c-14.94,23.13-39.57,30.5-64.95,21.66  c-13.75-4.79-27.46-9.76-40.97-15.19c-32.42-13.05-48.49-41.65-36.5-74.53C384.67,594.1,451.7,414.44,519.39,231.62  c25.35,9.4,47.44,17.6,72.36,26.85C530.93,420.8,470.42,582.31,410.31,742.73c-23.91,1.94-42.22-23.63-64.64-9.84  c-1.05,3.31-2.1,6.63-3.15,9.94C388.46,760.71,434.4,778.58,482.8,797.4z"/><polygon class="st8" points="672.64,288.13 488.86,776.51 428.1,753.27 611.2,265.01 "/><polygon class="st3" points="538.88,215.45 666.9,263.27 643.35,159.35 639.76,145.91 "/></svg>