<?xml version="1.0" ?><svg xmlns="http://www.w3.org/2000/svg" xmlns:xlink="http://www.w3.org/1999/xlink" version="1.1" id="Layer_1" viewBox="0 0 1000 1000" style="enable-background:new 0 0 1000 1000;" xml:space="preserve"><style type="text/css">
	.st0{fill:#ADAAD4;}
	.st1{fill:#F6AEC3;}
	.st2{fill:#F5EA85;}
	.st3{fill:#FDD677;}
	.st4{fill:#32C0CE;}
	.st5{fill:#FDD770;}
	.st6{fill:#FFFFFF;}
	.st7{fill:#73CBCA;}
	.st8{fill:#BFE5EB;}
	.st9{fill:#F4E884;}
	.st10{fill:#A29B97;}
	.st11{fill:#424C5C;}
	.st12{fill:#7183BD;}
	.st13{fill:#E7DC9D;}
	.st14{fill:#FCD76B;}
	.st15{fill:#AFCBE8;}
	.st16{fill:#EF4865;}
	.st17{fill:#A8C9DC;}
	.st18{fill:#9C9E9C;}
	.st19{fill:#F6DE62;}
	.st20{fill:#F7B0C0;}
	.st21{fill:#21C1E2;}
	.st22{fill:#F6E883;}
	.st23{fill:#A2CBE3;}
	.st24{fill:#FBDA74;}
	.st25{fill:#EF4B67;}
	.st26{fill:#B5DCE6;}
	.st27{fill:#B2D0E8;}
	.st28{fill:#AECDE9;}
	.st29{fill:#E99286;}
	.st30{fill:#F9BA73;}
	.st31{fill:#F0877F;}
	.st32{fill:#BDC579;}
	.st33{fill:#FED56E;}
	.st34{fill:#C5DB86;}
	.st35{fill:#FCBF6B;}
	.st36{fill:#F8BC70;}
	.st37{fill:#FBBA6B;}
	.st38{fill:#FCD86F;}
	.st39{fill:#EF8E85;}
	.st40{fill:#E6BE65;}
	.st41{fill:#C9DB84;}
	.st42{fill:#FAD367;}
	.st43{fill:#F7BC74;}
	.st44{fill:#FBD872;}
	.st45{fill:#D1E08B;}
	.st46{fill:#EE8A7E;}
	.st47{fill:#F38B85;}
	.st48{fill:#FDCF6A;}
	.st49{fill:#CADB86;}
	.st50{fill:none;}
	.st51{fill:#010101;}
	.st52{fill:#010101;stroke:#010101;stroke-miterlimit:10;}
</style><g><path d="M659.49,409.97c27.95,7.16,26.62,27.73,25.09,50.23c-6.96,101.96-18.19,202.91-42.72,302.71   c-16.21,65.94-54.78,98.74-118.98,105.53c-59.11,6.26-119.5,6.07-153.95-52.09c-15.91-26.85-19.78-62.6-22.95-94.91   c-9.19-93.68-14.63-187.73-22.93-281.5c-2.71-30.59,6.73-46.47,39.01-43.84c19.33,1.57,24.82-8.32,22.86-25.82   c-4.85-43.23-11.37-86.43-13.02-129.81c-0.78-20.61,2.25-54.51,13.73-59.66c22.95-10.28,52.92-4.91,79.99-5.97   c5.8-0.23,11.76,0.52,17.37-0.6c8.77-1.75,17.2-6.29,25.96-6.86c33.16-2.14,54.97-19.23,60.6-50.39   c3.65-20.19,12.59-31.28,34.76-25.46c29.13,7.66,59.11,12.97,87.26,23.29c36.93,13.54,44.24,30.63,33.4,68.87   C703.78,258.39,681.85,332.85,659.49,409.97z M421.86,412.82c-0.05,0.77-0.1,1.53-0.16,2.3c-13.17,0-26.35-0.27-39.51,0.05   c-39.05,0.95-40.87,1.22-37.84,39.73c8.26,104.93,17.32,209.82,28.3,314.49c1.73,16.51,12.11,34.56,23.68,47.12   c34.73,37.73,130.08,43.44,181.88,11.66c11.15-6.84,22.17-18.78,26.56-30.81c12.08-33.09,24.59-66.89,29.76-101.47   c11.95-79.98,19.4-160.63,29.33-240.92c2.15-17.39-4.4-23.47-21.08-24.69C569.1,424.88,495.49,418.71,421.86,412.82z    M692.69,217.96c-15.32-13.82-26.55-23.96-37.79-34.11c14.77,0,29.54,0,46.09,0c13.99-30.82,10.93-40.9-23.53-52.6   c-26.31-8.93-53.68-14.73-89.74-24.37c4.95,40.2,8.87,72.93,13.24,105.59c0.31,2.28,3.67,5.06,6.2,5.98   c25.05,9.13,50.22,17.92,76.92,27.36C687.86,233.57,690.75,224.23,692.69,217.96z M538.95,194.27   c-37.56-8.23-57.8-2.27-58.53,18.92c-2.05,60.1-0.72,120.32-0.72,180.91c11.77,0,21.31,0,32.59,0c1.43-14.71,2.07-27.72,4.05-40.52   C524.43,301.18,503.46,245.32,538.95,194.27z M538.96,398.58c16.1,8.38,24.23,1.08,27.47-16.51c7.84-42.59,17.47-84.93,23.03-127.8   c1.34-10.34-10.57-31.96-15.99-31.83c-16.72,0.41-35.91,3.63-34.97,30.51C540.15,300.35,538.96,347.86,538.96,398.58z    M454.36,392.37c0-42.02,0-84.05,0-127.27c-18.14,2.07-36.69,4.18-54.91,6.26c-0.1,79.46,5.68,114.35,22.88,123.7   c0-34.97,0-68.36,0-101.75c3.49-0.58,6.98-1.16,10.47-1.75C450.2,322.17,438.54,360.09,454.36,392.37z M622.13,244.28   c-3.07-0.16-6.15-0.32-9.22-0.48c-9.14,52.36-18.28,104.72-27.48,157.4c11.35,2.18,19.54,5.8,27.03,4.69   c10.15-1.51,19.76-6.66,29.6-10.25c-6.56-6.21-13.26-12.28-19.64-18.67c-3.85-3.85-7.2-8.2-10.78-12.32   c5.43-3.31,10.78-9.13,16.33-9.32c7.32-0.26,14.8,3.89,22.15,6.12c14.74-43.02,14.74-43.02-12.14-53.72   c-2.03,7.75-2.72,16.08-6.39,22.79c-3.64,6.66-10.26,11.69-15.58,17.43c-1.48-7.94-4.69-16.02-4.05-23.77   c1.08-12.96,5.25-25.64,6.94-38.59C620.7,271.92,621.11,258.06,622.13,244.28z M646.17,253.72c-2.66,2.11-5.31,4.22-7.97,6.33   c8.08,12.55,16.15,25.11,24.23,37.66c2.77-1.36,5.55-2.73,8.32-4.09c2.26-8.35,4.52-16.69,7.17-26.46   C666.17,262.18,656.17,257.95,646.17,253.72z"/><path class="st22" d="M421.86,412.82c73.63,5.89,147.25,12.07,220.92,17.46c16.68,1.22,23.23,7.3,21.08,24.69   c-9.93,80.29-17.37,160.94-29.33,240.92c-5.17,34.59-17.68,68.38-29.76,101.47c-4.39,12.03-15.41,23.97-26.56,30.81   c-51.8,31.79-147.15,26.07-181.88-11.66c-11.57-12.56-21.94-30.62-23.68-47.12c-10.98-104.67-20.05-209.56-28.3-314.49   c-3.03-38.52-1.21-38.79,37.84-39.73c13.16-0.32,26.34-0.05,39.51-0.05C421.75,414.35,421.81,413.58,421.86,412.82z M570.06,626.05   c-2.5-4.51-3.73-9.92-6.3-10.65c-3.92-1.12-11.35-0.53-12.8,1.95c-10.09,17.3-19.29,35.14-27.97,53.2   c-1.11,2.31,1.79,9.21,4.03,9.87c3.97,1.16,11.39,0.73,12.96-1.78C550.59,661.62,560.04,643.89,570.06,626.05z M462.31,605.67   c28.97,17,33.6-11.08,46.12-19.81c2.5-1.75,0.41-10.09,0.44-15.39c-5.5,0.37-12.97-1.4-16.13,1.51   C482.59,581.31,474.04,592.37,462.31,605.67z M512.16,640.42c7.02-17.61,12.04-30.19,17.06-42.78c-5.12-0.97-13.92-4.07-14.79-2.57   C507.72,606.63,486.44,615.78,512.16,640.42z"/><path class="st23" d="M692.69,217.96c-1.94,6.28-4.83,15.62-8.62,27.86c-26.7-9.44-51.87-18.23-76.92-27.36   c-2.53-0.92-5.89-3.71-6.2-5.98c-4.38-32.67-8.29-65.39-13.24-105.59c36.06,9.64,63.44,15.43,89.74,24.37   c34.46,11.7,37.52,21.78,23.53,52.6c-16.55,0-31.32,0-46.09,0C666.14,193.99,677.38,204.14,692.69,217.96z"/><path class="st24" d="M538.95,194.27c-35.49,51.05-14.52,106.91-22.61,159.3c-1.98,12.8-2.62,25.81-4.05,40.52   c-11.28,0-20.82,0-32.59,0c0-60.59-1.33-120.81,0.72-180.91C481.15,192,501.39,186.03,538.95,194.27z"/><path class="st25" d="M538.96,398.58c0-50.72,1.2-98.23-0.47-145.64c-0.94-26.87,18.26-30.1,34.97-30.51   c5.42-0.13,17.33,21.49,15.99,31.83c-5.56,42.87-15.19,85.21-23.03,127.8C563.18,399.66,555.05,406.96,538.96,398.58z"/><path class="st26" d="M454.36,392.37c-15.82-32.28-4.16-70.2-21.56-100.8c-3.49,0.58-6.98,1.16-10.47,1.75   c0,33.39,0,66.78,0,101.75c-17.2-9.36-22.98-44.25-22.88-123.7c18.22-2.08,36.77-4.19,54.91-6.26   C454.36,308.32,454.36,350.35,454.36,392.37z"/><path class="st27" d="M622.13,244.28c-1.02,13.78-1.43,27.63-3.22,41.31c-1.69,12.95-5.87,25.62-6.94,38.59   c-0.64,7.76,2.57,15.84,4.05,23.77c5.31-5.74,11.94-10.77,15.58-17.43c3.66-6.71,4.36-15.05,6.39-22.79   c26.88,10.7,26.88,10.7,12.14,53.72c-7.35-2.24-14.83-6.38-22.15-6.12c-5.54,0.2-10.89,6.01-16.33,9.32   c3.58,4.12,6.93,8.47,10.78,12.32c6.38,6.39,13.08,12.46,19.64,18.67c-9.84,3.59-19.45,8.73-29.6,10.25   c-7.49,1.12-15.68-2.51-27.03-4.69c9.2-52.67,18.34-105.03,27.48-157.4C615.98,243.96,619.05,244.12,622.13,244.28z"/><path class="st23" d="M646.17,253.72c10,4.23,20,8.46,31.75,13.44c-2.65,9.77-4.91,18.11-7.17,26.46   c-2.77,1.36-5.55,2.73-8.32,4.09c-8.08-12.55-16.15-25.11-24.23-37.66C640.86,257.93,643.51,255.82,646.17,253.72z"/><path d="M570.06,626.05c-10.02,17.85-19.47,35.58-30.07,52.58c-1.57,2.51-8.99,2.94-12.96,1.78c-2.25-0.66-5.14-7.56-4.03-9.87   c8.68-18.06,17.88-35.9,27.97-53.2c1.45-2.48,8.88-3.08,12.8-1.95C566.33,616.13,567.56,621.53,570.06,626.05z"/><path d="M462.31,605.67c11.73-13.3,20.28-24.36,30.42-33.68c3.17-2.91,10.63-1.14,16.13-1.51c-0.03,5.3,2.07,13.64-0.44,15.39   C495.91,594.59,491.28,622.67,462.31,605.67z"/><path d="M512.16,640.42c-25.72-24.64-4.44-33.79,2.27-45.35c0.87-1.5,9.67,1.6,14.79,2.57   C524.2,610.22,519.18,622.81,512.16,640.42z"/></g></svg>